<svg width="40" height="40" viewBox="0 0 40 40" fill="none" xmlns="http://www.w3.org/2000/svg">
<g style="mix-blend-mode:difference" clip-path="url(#clip0_1_171)">
<path fill-rule="evenodd" clip-rule="evenodd" d="M14.5163 7.37332C13.8354 7.57637 12.8821 7.98248 12.4054 8.27577C11.9061 8.61419 11.5883 8.99773 11.6337 9.22334C11.6564 9.4264 11.9968 9.67457 12.36 9.78737C12.7232 9.87762 13.9943 9.85506 15.1519 9.74225C16.2867 9.60689 17.6032 9.35871 18.0345 9.17822C18.4657 8.99773 18.9197 8.65931 19.0559 8.4337C19.1921 8.18553 19.1694 7.91479 18.9878 7.64406C18.7835 7.37332 18.3069 7.21539 17.2401 7.14771C16.2868 7.08003 15.3107 7.17027 14.5163 7.37332ZM9.04613 11.7502C8.50137 12.1112 7.72964 12.6978 7.36647 13.0813C6.91251 13.5476 6.74606 13.901 6.86711 14.1417C6.98061 14.4124 7.63884 14.5027 9.70436 14.6155C11.157 14.7057 14.3574 14.7057 16.7861 14.638C19.2148 14.5704 22.0293 14.3899 23.028 14.2545C24.0267 14.1191 25.5021 13.7807 26.2965 13.51C27.1137 13.2392 27.8627 12.8331 27.9989 12.6301C28.1578 12.3368 28.1351 12.1563 27.9308 11.9533C27.7265 11.7502 26.183 11.6148 22.279 11.502C19.3283 11.4343 15.3561 11.299 13.4722 11.2313L10.0675 11.0959L9.04613 11.7502ZM-17.6239 16.1045C-17.7147 16.285 -17.7147 16.5783 -17.6466 16.8039C-17.5331 17.0747 -17.3062 17.1875 -16.8749 17.1423C-16.3755 17.0972 -16.2621 16.9844 -16.2621 16.5332C-16.2621 16.082 -16.3755 15.9466 -16.8749 15.8789C-17.2154 15.8563 -17.5331 15.9466 -17.6239 16.1045ZM-62.1118 16.2173C-62.2026 16.3076 -62.2707 18.4283 -62.248 20.9552L-62.2253 25.5577C-61.0904 25.5577 -61.0904 25.5351 -61.0677 23.4595C-61.0677 21.9253 -60.9769 21.1808 -60.6819 20.5942C-60.4322 20.0979 -60.0463 19.7369 -59.6151 19.6241C-59.2292 19.5113 -58.6844 19.4661 -58.4121 19.5564C-58.1397 19.6241 -57.7084 19.8948 -57.4588 20.143C-57.0502 20.5265 -57.0048 20.8875 -57.0048 23.0759V25.5577H-55.6429C-55.6429 22.3089 -55.7337 21.0003 -55.8699 20.5265C-55.9834 20.0527 -56.392 19.421 -56.7778 19.1277C-57.2545 18.7216 -57.7311 18.5637 -58.3667 18.5637C-58.866 18.5637 -59.5016 18.6765 -59.7739 18.8119C-60.0463 18.9472 -60.4549 19.2857 -60.6819 19.5338C-61.045 20.0076 -61.0677 19.9625 -61.0677 18.0448C-61.0677 16.285 -61.1131 16.082 -61.499 16.082C-61.726 16.082 -61.9984 16.1496 -62.1118 16.2173ZM-36.9625 16.2173C-37.4619 16.3076 -37.4846 16.3076 -37.4846 20.9326V25.5577H-36.3497C-36.3497 18.2027 -36.3724 16.082 -36.3951 16.1045C-36.4178 16.1271 -36.6902 16.1722 -36.9625 16.2173ZM14.7433 16.5106L5.80031 16.646C5.09668 18.6314 4.9832 19.3985 5.07399 19.8497C5.16478 20.3686 5.36906 20.6619 5.82301 20.8424C6.25427 21.0003 8.54677 21.0454 13.3587 20.9326C17.172 20.8649 22.2336 20.6845 24.5942 20.5716C26.9775 20.4363 30.4049 20.1881 32.198 20.0076C34.0138 19.8271 36.3063 19.4887 37.305 19.218C38.3037 18.9698 39.2797 18.6539 39.4386 18.496C39.6883 18.2704 39.6429 18.135 39.2116 17.7064C38.9166 17.4131 38.1675 17.007 37.532 16.8039C36.6014 16.5106 35.2622 16.4429 30.0417 16.4204C26.5462 16.3978 19.6687 16.4429 14.7433 16.5106ZM-85.5815 17.0747C-85.6042 17.6161 -85.5361 17.6613 -84.3558 17.6613H-83.1074V25.5577H-81.9725V17.6613C-79.5211 17.5484 -79.3623 17.4808 -79.3623 17.0972C-79.3623 16.6686 -79.5211 16.6234 -82.4719 16.5783L-85.5815 16.5106V17.0747ZM-129.842 17.6387V18.5411H-127.346V25.5351H-125.076V18.5411H-122.579V16.7362H-129.842V17.6387ZM-106.464 17.6387C-106.464 18.293 -106.554 18.5411 -106.804 18.5411C-107.054 18.5411 -107.144 18.7893 -107.144 19.4436C-107.144 20.0979 -107.054 20.346 -106.804 20.346C-106.532 20.346 -106.464 20.7521 -106.418 22.3314C-106.373 23.7753 -106.237 24.4973 -105.964 24.926C-105.692 25.3546 -105.283 25.5802 -104.716 25.6931C-104.239 25.7607 -103.604 25.7382 -103.286 25.6254C-102.832 25.4674 -102.718 25.2418 -102.65 24.5199C-102.56 23.6625 -102.582 23.64 -103.104 23.7753C-103.422 23.8656 -103.763 23.8205 -103.921 23.6625C-104.103 23.5046 -104.216 22.8503 -104.216 21.8802L-104.194 20.346C-102.877 20.346 -102.832 20.3009 -102.832 19.4436C-102.832 18.6088 -102.877 18.5411 -103.513 18.5411C-104.171 18.5411 -104.194 18.496 -104.194 17.6387V16.7362H-106.464V17.6387ZM-120.196 18.4735C-120.445 18.5411 -121.013 18.857 -121.444 19.1954C-121.875 19.5113 -122.352 20.143 -122.534 20.5716C-122.738 21.0906 -122.806 21.79 -122.738 22.4894C-122.67 23.1211 -122.42 23.8882 -122.171 24.1814C-121.944 24.4973 -121.49 24.9485 -121.195 25.1741C-120.899 25.3998 -120.15 25.6254 -119.515 25.6931C-118.698 25.7607 -118.176 25.6705 -117.586 25.3772C-117.154 25.1516 -116.564 24.6327 -116.292 24.1814C-115.997 23.7528 -115.77 23.3241 -115.77 23.2339C-115.77 23.1436 -116.269 23.0534 -116.859 23.0534C-117.654 23.0534 -118.039 23.1662 -118.38 23.5046C-118.63 23.7753 -119.016 23.9784 -119.242 23.9784C-119.447 23.9558 -119.833 23.7528 -120.082 23.5046C-120.332 23.2564 -120.536 22.9631 -120.536 22.8278C-120.536 22.6924 -119.606 22.6022 -118.153 22.6022H-115.77C-115.77 21.0906 -115.974 20.3912 -116.224 19.9625C-116.473 19.5564 -116.905 19.0826 -117.2 18.9021C-117.472 18.6991 -118.153 18.5186 -118.72 18.4509C-119.288 18.4058 -119.946 18.4058 -120.196 18.4735ZM-120.15 20.6393C-119.855 20.346 -119.515 20.1204 -119.356 20.1204C-119.197 20.1204 -118.811 20.3009 -118.493 20.5491C-118.176 20.7973 -118.039 21.0454 -118.153 21.1357C-118.289 21.2259 -118.902 21.2485 -120.65 21.1357L-120.15 20.6393ZM-112.728 18.7442C-113.273 18.9924 -113.84 19.4887 -114.181 20.0302C-114.589 20.6845 -114.748 21.2485 -114.748 22.0607C-114.748 22.7601 -114.589 23.482 -114.294 23.9784C-114.022 24.4522 -113.432 24.9711 -112.842 25.2644C-112.274 25.5577 -111.502 25.7833 -111.139 25.7833C-110.753 25.7607 -110.027 25.5577 -109.482 25.3321C-108.915 25.0613 -108.393 24.6101 -108.189 24.204C-107.984 23.8205 -107.848 23.3692 -107.848 23.1888C-107.848 22.9406 -108.098 22.8503 -108.756 22.8503C-109.392 22.8503 -109.868 23.0083 -110.345 23.4144C-110.867 23.843 -111.139 23.9333 -111.525 23.7753C-111.82 23.6625 -112.183 23.2339 -112.342 22.8278C-112.592 22.1735 -112.592 21.9253 -112.297 21.2034C-111.979 20.504 -111.82 20.3686 -111.253 20.3686C-110.799 20.3686 -110.496 20.519 -110.345 20.8198C-110.163 21.1808 -109.891 21.271 -108.983 21.271C-107.984 21.271 -107.848 21.2034 -107.848 20.8198C-107.848 20.5717 -108.121 20.0527 -108.461 19.6466C-108.801 19.2631 -109.414 18.7893 -109.823 18.6314C-110.231 18.4735 -110.844 18.3381 -111.185 18.3381C-111.525 18.3381 -112.229 18.5186 -112.728 18.7442ZM-98.6328 18.7893C-99.1548 19.1729 -99.2456 19.1954 -99.2456 18.9247C-99.2229 18.6314 -99.4726 18.5637 -100.358 18.5637H-101.493V25.5577H-99.2229C-99.2229 21.3613 -99.2002 21.2485 -98.6555 20.9326C-98.3377 20.7521 -97.8837 20.6393 -97.6341 20.707C-97.2028 20.7973 -97.1801 20.707 -97.2255 19.6241C-97.2709 18.7668 -97.3844 18.4283 -97.6341 18.3832C-97.8384 18.3381 -98.2923 18.5411 -98.6328 18.7893ZM-94.411 18.6539C-94.8195 18.8119 -95.3643 19.2405 -95.614 19.6015C-95.8636 19.9625 -96.1587 20.6619 -96.2949 21.1582C-96.4538 21.7674 -96.4538 22.3765 -96.2722 23.0759C-96.136 23.6851 -95.7501 24.3845 -95.2962 24.8357C-94.7514 25.3772 -94.2975 25.6028 -93.5484 25.6931C-92.7313 25.8059 -92.3909 25.7382 -91.8915 25.3546C-91.3921 24.9711 -91.2787 24.9485 -91.2787 25.2193C-91.2787 25.4674 -91.0063 25.5577 -90.1438 25.5577H-89.0089V18.5637C-91.0063 18.5637 -91.2787 18.6314 -91.2787 18.9021C-91.2787 19.1729 -91.3921 19.1503 -91.8915 18.7668C-92.232 18.5186 -92.7767 18.3155 -93.0945 18.3381C-93.3896 18.3381 -94.0024 18.496 -94.411 18.6539ZM-93.6392 20.707C-93.435 20.5265 -93.0037 20.3686 -92.6859 20.346C-92.3455 20.346 -91.8915 20.5265 -91.6645 20.7521C-91.3694 21.0454 -91.2787 21.429 -91.3241 22.1509C-91.3694 22.8955 -91.5283 23.2339 -91.9596 23.5497C-92.3455 23.843 -92.6859 23.9107 -93.0718 23.7979C-93.3669 23.7077 -93.7527 23.3467 -93.9116 23.0083C-94.0932 22.6698 -94.1613 22.0833 -94.1159 21.7223C-94.0478 21.3387 -93.8435 20.8875 -93.6392 20.707ZM-76.979 19.06C-77.4102 19.3533 -77.955 19.9399 -78.1593 20.3686C-78.3862 20.7973 -78.5678 21.5643 -78.5451 22.0607C-78.5451 22.557 -78.3408 23.3918 -78.1139 23.9107C-77.7507 24.6778 -77.4329 24.9711 -76.5704 25.3546C-75.7306 25.7382 -75.2766 25.8059 -74.4822 25.6705C-73.7105 25.5351 -73.2338 25.287 -72.5983 24.6327C-72.1443 24.1363 -71.7811 23.6174 -71.8265 23.4595C-71.8719 23.3016 -72.0989 23.1888 -72.3713 23.1888C-72.621 23.1888 -73.0976 23.5046 -73.4154 23.9107C-73.9374 24.5424 -74.1644 24.6552 -75.0496 24.6552C-75.776 24.6552 -76.2072 24.5199 -76.6158 24.1363C-76.9336 23.8656 -77.2286 23.3467 -77.2967 23.0083L-77.4329 22.3991H-71.7584C-71.7584 21.0906 -71.94 20.3912 -72.167 20.0302C-72.394 19.6466 -72.9614 19.1729 -73.4154 18.9472C-73.8694 18.7442 -74.6865 18.5637 -75.2312 18.5637C-75.8668 18.5637 -76.4796 18.7442 -76.979 19.06ZM-76.4569 20.0527C-75.8668 19.5113 -75.6398 19.421 -74.8454 19.5338C-74.2325 19.6241 -73.7332 19.8723 -73.3927 20.2332C-73.1203 20.5491 -72.8933 21.0229 -72.8933 21.271C-72.8933 21.6772 -73.0295 21.7223 -75.1631 21.7223C-77.3875 21.7223 -77.4329 21.7223 -77.2967 21.2034C-77.2286 20.9326 -76.8428 20.4137 -76.4569 20.0527ZM-68.6942 18.9021C-69.0801 19.06 -69.6248 19.5564 -69.8745 19.9625C-70.1469 20.3686 -70.442 21.068 -70.5101 21.4967C-70.6009 21.9253 -70.5555 22.6924 -70.4193 23.1888C-70.2831 23.7528 -69.8972 24.3619 -69.3752 24.8132C-68.8531 25.3095 -68.2403 25.6028 -67.6047 25.6931C-66.9011 25.8059 -66.379 25.7156 -65.5619 25.3546C-64.8583 25.0388 -64.3589 24.6327 -64.1546 24.204C-63.9504 23.8205 -63.8142 23.4144 -63.8142 23.3016C-63.8142 23.1662 -64.0185 23.0759 -64.2681 23.0759C-64.5178 23.0759 -65.0399 23.4144 -65.4484 23.843C-66.0386 24.4747 -66.379 24.6327 -67.0373 24.6327C-67.6955 24.6552 -68.0587 24.4973 -68.5807 23.9784C-69.1255 23.4144 -69.2617 23.0985 -69.2617 22.2863C-69.2617 21.7223 -69.1028 20.9552 -68.9212 20.5942C-68.7169 20.2107 -68.3538 19.8497 -68.0587 19.7594C-67.7863 19.6918 -67.2416 19.6241 -66.8784 19.6466C-66.4925 19.6692 -65.9705 19.8271 -65.6754 20.0302C-65.403 20.2107 -65.108 20.5717 -65.0626 20.8198C-64.9869 21.1206 -64.7599 21.271 -64.3816 21.271C-63.9958 21.271 -63.8142 21.1357 -63.7915 20.8649C-63.7915 20.6619 -63.9958 20.1881 -64.2454 19.8497C-64.5178 19.5113 -65.0172 19.0826 -65.403 18.9021C-65.7662 18.7216 -66.5152 18.5637 -67.0373 18.5637C-67.582 18.5637 -68.3084 18.7216 -68.6942 18.9021ZM-54.0314 22.0381L-54.0541 25.5577H-52.6922C-52.6922 21.9479 -52.5787 20.8198 -52.3971 20.4814C-52.2382 20.1655 -51.8978 19.8046 -51.6027 19.6918C-51.3303 19.5564 -50.831 19.4661 -50.5359 19.4661C-50.2181 19.4661 -49.6734 19.7143 -49.3329 20.0076C-48.7428 20.5265 -48.7201 20.6393 -48.652 23.0534L-48.6066 25.5577H-47.4717C-47.4717 21.5869 -47.5852 20.5717 -47.8122 20.0302C-47.9937 19.579 -48.4477 19.0826 -48.8336 18.9021C-49.1967 18.7216 -49.9231 18.5637 -50.4224 18.5637C-51.058 18.5637 -51.5346 18.7216 -52.0113 19.1277L-52.6922 19.6918C-52.783 18.8119 -52.9646 18.6539 -53.3958 18.6088L-54.0087 18.5186L-54.0314 22.0381ZM-44.2032 19.0149C-44.5891 19.2405 -45.1792 19.8723 -45.5197 20.4137C-46.0417 21.2259 -46.1325 21.5643 -46.019 22.5119C-45.9736 23.1436 -45.7239 23.8882 -45.497 24.1814C-45.27 24.4747 -44.7933 24.926 -44.4529 25.1967C-43.9762 25.5577 -43.4769 25.6705 -42.5235 25.6705C-41.5475 25.6705 -41.0482 25.5351 -40.4807 25.1741C-40.0949 24.8808 -39.5955 24.3619 -39.4139 23.9784C-39.2323 23.6174 -39.0735 22.7827 -39.0735 22.1284C-39.0735 21.3312 -39.2248 20.692 -39.5274 20.2107C-39.7771 19.8046 -40.3218 19.2631 -40.7077 19.0149C-41.1617 18.7442 -41.8653 18.5637 -42.4781 18.5637C-43.091 18.5637 -43.7719 18.7442 -44.2032 19.0149ZM-43.4995 19.782C-43.1137 19.6241 -42.5008 19.5338 -42.1377 19.6015C-41.7518 19.6692 -41.1844 20.0302 -40.8212 20.3912C-40.3445 20.8875 -40.2084 21.271 -40.2084 22.0156C-40.2084 22.5796 -40.3899 23.279 -40.6623 23.7077C-41.0028 24.2491 -41.3432 24.4747 -41.9561 24.565C-42.4327 24.6552 -43.0683 24.6327 -43.3634 24.5199C-43.6584 24.4071 -44.1124 24.0686 -44.3394 23.7528C-44.6344 23.3918 -44.7933 22.8278 -44.7933 22.1735C-44.7933 21.6095 -44.6571 20.9101 -44.4756 20.6168C-44.3167 20.3235 -43.8627 19.9399 -43.4995 19.782ZM-32.9223 18.9698C-33.3536 19.1729 -33.921 19.6466 -34.1707 20.0076C-34.4658 20.3912 -34.6701 21.0906 -34.7382 21.8125C-34.7836 22.6698 -34.6928 23.2113 -34.3296 23.9333C-33.9891 24.6101 -33.5806 25.0162 -32.8769 25.3321C-32.3549 25.5802 -31.6058 25.7833 -31.2427 25.7833C-30.8568 25.7833 -30.1078 25.5577 -29.563 25.2869C-28.9275 24.9711 -28.4054 24.4747 -28.1331 23.9784C-27.9061 23.5497 -27.7245 22.7375 -27.7245 22.1735C-27.7245 21.6095 -27.9061 20.7973 -28.1331 20.3686C-28.3373 19.9399 -28.8821 19.3533 -29.3134 19.0826C-29.8581 18.7216 -30.4256 18.5637 -31.1292 18.5637C-31.6966 18.5637 -32.4911 18.7442 -32.9223 18.9698ZM-32.196 19.8271C-31.8101 19.6241 -31.4016 19.4887 -31.2881 19.4887C-31.1973 19.4661 -30.766 19.6241 -30.3348 19.8046C-29.8051 20.0302 -29.4268 20.4062 -29.1999 20.9326C-29.0183 21.3613 -28.8594 21.9253 -28.8594 22.1735C-28.8594 22.4217 -29.0183 22.9631 -29.1999 23.3692C-29.3814 23.7753 -29.79 24.2266 -30.1078 24.3845C-30.4256 24.5424 -30.9703 24.6552 -31.3562 24.6552C-31.7874 24.6552 -32.2868 24.4296 -32.718 24.0461C-33.1493 23.6625 -33.4671 23.1211 -33.5352 22.6247C-33.626 22.1284 -33.5352 21.4967 -33.3082 20.9778C-33.0812 20.4363 -32.6953 20.0302 -32.196 19.8271ZM-24.9327 19.0149C-25.3866 19.2857 -25.886 19.8948 -26.181 20.5265C-26.5442 21.3387 -26.635 21.79 -26.5215 22.557C-26.4307 23.0985 -26.2264 23.8205 -26.0449 24.1589C-25.886 24.4973 -25.4547 24.9711 -25.0915 25.2193C-24.6603 25.5126 -24.0247 25.6479 -23.253 25.6705C-22.2089 25.6705 -21.9819 25.5802 -21.2556 24.8808L-20.4612 24.0912C-20.4612 25.49 -20.552 26.2345 -20.6881 26.6406C-20.8243 27.0918 -21.1648 27.498 -21.5961 27.701C-21.9592 27.8815 -22.6175 28.0394 -23.0033 28.0394C-23.5481 28.0169 -23.9566 27.8138 -24.4787 27.2498C-24.8873 26.8211 -25.432 26.4601 -25.6817 26.4601C-25.9768 26.4601 -26.1357 26.6181 -26.1357 26.8662C-26.113 27.0693 -25.7271 27.6333 -25.2731 28.0845C-24.6603 28.6937 -24.2063 28.9419 -23.6389 28.987C-23.2076 29.0096 -22.5721 29.0096 -22.2089 28.987C-21.8684 28.9644 -21.2783 28.7839 -20.9151 28.6035C-20.5066 28.4004 -20.0526 27.8815 -19.7802 27.3175C-19.3944 26.4827 -19.3263 25.851 -19.3263 22.4668V18.5637C-20.3704 18.5637 -20.4612 18.6765 -20.4612 19.2405C-20.4612 19.6241 -20.552 19.9174 -20.6881 19.9174C-20.8016 19.9174 -20.9151 19.8271 -20.9151 19.6918C-20.9151 19.579 -21.2556 19.2631 -21.6415 19.0149C-22.0727 18.7668 -22.7991 18.5637 -23.2984 18.5637C-23.7978 18.5637 -24.5241 18.7668 -24.9327 19.0149ZM-23.5708 19.6241C-23.2984 19.579 -22.8218 19.579 -22.504 19.6466C-22.1862 19.7143 -21.6642 20.0302 -21.3237 20.346C-20.9832 20.6619 -20.6428 21.271 -20.5747 21.6772C-20.5066 22.0833 -20.5974 22.7375 -20.7562 23.1436C-20.9151 23.5497 -21.301 24.0461 -21.6188 24.2717C-21.9138 24.4747 -22.5494 24.6552 -23.0033 24.6552C-23.6616 24.6552 -24.0247 24.4973 -24.5468 23.9784C-25.1142 23.4144 -25.2277 23.1211 -25.2277 22.1735C-25.2277 21.2936 -25.0915 20.9101 -24.6603 20.3912C-24.3425 20.0302 -23.8659 19.6918 -23.5708 19.6241ZM-17.5104 22.0607V25.5577H-16.3755V18.5637H-17.5104V22.0607ZM-13.1297 19.0149C-13.5383 19.2631 -14.0831 19.8046 -14.3327 20.2107C-14.6278 20.6619 -14.7867 21.3387 -14.7867 22.0156C-14.7867 22.6022 -14.6505 23.4144 -14.4916 23.8205C-14.3327 24.2266 -13.8334 24.7906 -13.4021 25.1065C-12.812 25.5351 -12.358 25.6705 -11.382 25.6705C-10.5649 25.6705 -9.90664 25.5351 -9.49808 25.2869C-9.15761 25.0613 -8.68095 24.565 -8.45398 24.1589C-8.2043 23.7528 -8.0454 23.3692 -8.0908 23.3016C-8.1362 23.2339 -8.36319 23.1888 -8.61286 23.1888C-8.83984 23.1888 -9.3165 23.5272 -9.63427 23.9333C-10.179 24.565 -10.3833 24.6552 -11.382 24.6552C-12.358 24.6552 -12.585 24.565 -13.0843 23.9784C-13.4021 23.6174 -13.6518 23.0985 -13.6518 22.8503C-13.6518 22.4217 -13.4929 22.3991 -10.8146 22.3991H-7.97731C-7.97731 21.3613 -8.1135 20.7747 -8.29509 20.4363C-8.47667 20.0979 -8.88523 19.5564 -9.22569 19.2405C-9.70235 18.8119 -10.1109 18.6539 -11.1096 18.6088C-12.1083 18.5637 -12.5623 18.6539 -13.1297 19.0149ZM-12.4488 19.782C-12.1764 19.6241 -11.7225 19.4887 -11.4274 19.4661C-11.155 19.4661 -10.6103 19.6241 -10.2471 19.8046C-9.81584 20.0076 -9.47537 20.4137 -9.33919 20.8875C-9.203 21.2936 -9.11221 21.632 -9.11221 21.6772C-9.11221 21.6997 -10.1336 21.7223 -11.382 21.7223C-13.0616 21.7223 -13.6518 21.6546 -13.6518 21.4515C-13.6291 21.2936 -13.4702 20.9101 -13.2886 20.6168C-13.0844 20.3235 -12.6985 19.9399 -12.4488 19.782ZM-5.59403 18.8344C-5.8437 18.9698 -6.18419 19.2405 -6.34307 19.4436C-6.50196 19.6466 -6.61544 20.1881 -6.61544 20.6619C-6.61544 21.271 -6.47926 21.5869 -6.09338 21.8351C-5.82101 22.0156 -5.02658 22.3314 -4.34564 22.5119C-3.66471 22.6924 -2.96107 22.9857 -2.80219 23.1436C-2.59791 23.3016 -2.52982 23.64 -2.62061 24.0461C-2.7114 24.4296 -2.93838 24.7004 -3.25615 24.7906C-3.55122 24.8808 -4.07327 24.8357 -4.45914 24.7229C-4.8223 24.6101 -5.23087 24.2943 -5.36705 24.0235C-5.52594 23.6851 -5.79832 23.5272 -6.20688 23.5272C-6.75163 23.5272 -6.81972 23.5949 -6.66084 24.0235C-6.57005 24.2943 -6.22958 24.7455 -5.86641 25.0388C-5.52594 25.3321 -4.91309 25.6254 -4.50453 25.6931C-4.11867 25.7833 -3.41504 25.7156 -2.96107 25.5577C-2.50712 25.4223 -1.96237 25.0839 -1.75809 24.8132C-1.55382 24.5424 -1.39491 24.0461 -1.39491 23.7077C-1.39491 23.3692 -1.6219 22.8503 -1.89427 22.557C-2.21204 22.2637 -2.93838 21.9253 -3.66471 21.7674C-4.34564 21.632 -5.11737 21.3162 -5.36705 21.068C-5.79831 20.6168 -5.79832 20.5942 -5.41245 20.0302C-5.11738 19.6241 -4.8223 19.4661 -4.23215 19.4661C-3.61931 19.4661 -3.32424 19.6241 -2.91568 20.143C-2.62061 20.5717 -2.21204 20.8198 -1.89427 20.8198C-1.41762 20.8198 -1.41762 20.7747 -1.6673 20.0979C-1.82619 19.7143 -2.25744 19.1954 -2.6433 18.9698C-3.00647 18.7442 -3.7328 18.5637 -4.23215 18.5637C-4.73151 18.5863 -5.34435 18.6991 -5.59403 18.8344ZM7.50266 23.3692C7.09409 23.5497 6.64014 23.8656 6.52664 24.0686C6.41316 24.2717 6.36777 24.6552 6.43587 24.9485C6.50395 25.2193 6.93521 25.8284 7.41187 26.3022C7.86583 26.776 8.61487 27.2723 9.04613 27.3851C9.47739 27.5205 10.7712 27.6784 11.8834 27.7461C13.0183 27.8138 16.4229 27.701 19.4872 27.498C22.5514 27.2949 26.4327 26.979 28.1124 26.7986C29.792 26.5955 31.744 26.3473 32.425 26.212C33.1059 26.0766 34.1954 25.7382 34.8083 25.4674C35.4438 25.1741 36.102 24.768 36.2836 24.565C36.5787 24.204 36.5787 24.1363 36.2609 23.9107C36.0112 23.7302 33.3329 23.5949 28.0897 23.482C23.7998 23.3918 17.5805 23.2564 14.2666 23.1888C9.43199 23.0759 8.11549 23.1211 7.50266 23.3692ZM14.7206 29.19C13.4495 29.2803 12.2692 29.4833 11.838 29.709C11.4294 29.912 11.0889 30.2053 11.0889 30.3632C11.0662 30.5212 11.2932 30.837 11.5656 31.0852C11.838 31.3334 12.587 31.6718 13.2225 31.8297C13.8581 31.9876 15.6058 32.1907 17.1039 32.2584C18.7835 32.3261 20.3497 32.2809 21.1895 32.123C21.9385 31.9876 22.9145 31.6943 23.3231 31.4687C23.7544 31.2657 24.1402 30.9724 24.1856 30.8145C24.231 30.6565 23.8225 30.3407 23.3004 30.0925C22.7557 29.8443 21.7116 29.551 20.9625 29.4157C20.2135 29.3029 18.9878 29.1449 18.2388 29.1224C17.4897 29.0772 15.9009 29.0998 14.7206 29.19Z" fill="white" stroke="black" stroke-width="0.226979"/>
</g>
<defs>
<clipPath id="clip0_1_171">
<rect width="39.5872" height="39.5872" fill="white"/>
</clipPath>
</defs>
</svg>
