<svg width="44" height="44" viewBox="0 0 44 44" fill="none" xmlns="http://www.w3.org/2000/svg">
<rect width="44" height="44" rx="9" fill="white"/>
<mask id="mask0_1_627" style="mask-type:luminance" maskUnits="userSpaceOnUse" x="8" y="28" width="7" height="6">
<path d="M8.80127 28.0239H14.2335V33.4561H8.80127V28.0239Z" fill="white"/>
</mask>
<g mask="url(#mask0_1_627)">
<path d="M11.5252 28.0254C11.1594 28.0254 10.8132 28.0907 10.4866 28.2214C10.1469 28.3651 9.85296 28.561 9.60473 28.8093C9.34344 29.0705 9.14748 29.3645 9.01683 29.6911C8.87313 30.0308 8.80127 30.377 8.80127 30.7297C8.80127 31.0955 8.87313 31.4483 9.01683 31.7879C9.14748 32.1146 9.34344 32.402 9.60473 32.6502C9.85296 32.9115 10.1469 33.114 10.4866 33.2577C10.8132 33.3883 11.1594 33.4537 11.5252 33.4537C11.8779 33.4537 12.2242 33.3883 12.5638 33.2577C12.8904 33.114 13.1844 32.9115 13.4457 32.6502C13.6939 32.402 13.8899 32.1146 14.0336 31.7879C14.1642 31.4483 14.2295 31.0955 14.2295 30.7297C14.2295 30.377 14.1642 30.0308 14.0336 29.6911C13.8899 29.3645 13.6939 29.0705 13.4457 28.8093C13.1844 28.561 12.8904 28.3651 12.5638 28.2214C12.2242 28.0907 11.8779 28.0254 11.5252 28.0254Z" fill="#171717"/>
</g>
<mask id="mask1_1_627" style="mask-type:luminance" maskUnits="userSpaceOnUse" x="14" y="19" width="7" height="7">
<path d="M14.6414 19.8096H20.0717V25.2418H14.6414V19.8096Z" fill="white"/>
</mask>
<g mask="url(#mask1_1_627)">
<path d="M17.3654 19.8149C16.9995 19.8149 16.6533 19.8803 16.3267 20.0109C15.9871 20.1546 15.6931 20.3506 15.4449 20.5988C15.1836 20.8601 14.9876 21.154 14.857 21.4807C14.7133 21.8203 14.6414 22.1665 14.6414 22.5193C14.6414 22.8851 14.7133 23.2313 14.857 23.5579C14.9876 23.8976 15.1836 24.1915 15.4449 24.4398C15.6931 24.701 15.9871 24.897 16.3267 25.0277C16.6533 25.1714 16.9995 25.2432 17.3654 25.2432C17.7181 25.2432 18.0643 25.1714 18.404 25.0277C18.7306 24.897 19.0245 24.701 19.2858 24.4398C19.534 24.1915 19.73 23.8976 19.8737 23.5579C20.0044 23.2313 20.0697 22.8851 20.0697 22.5193C20.0697 22.1665 20.0044 21.8203 19.8737 21.4807C19.73 21.154 19.534 20.8601 19.2858 20.5988C19.0245 20.3506 18.7306 20.1546 18.404 20.0109C18.0643 19.8803 17.7181 19.8149 17.3654 19.8149Z" fill="#171717"/>
</g>
<mask id="mask2_1_627" style="mask-type:luminance" maskUnits="userSpaceOnUse" x="21" y="22" width="7" height="7">
<path d="M21.8533 22.8604H27.2855V28.2925H21.8533V22.8604Z" fill="white"/>
</mask>
<g mask="url(#mask2_1_627)">
<path d="M24.5773 22.8521C24.2115 22.8521 23.8653 22.9239 23.5386 23.0676C23.199 23.1983 22.905 23.3942 22.6568 23.6555C22.3955 23.9037 22.1995 24.1977 22.0689 24.5374C21.9252 24.864 21.8533 25.2102 21.8533 25.576C21.8533 25.9418 21.9252 26.288 22.0689 26.6146C22.1995 26.9412 22.3955 27.2352 22.6568 27.4965C22.905 27.7447 23.199 27.9407 23.5386 28.0844C23.8653 28.2281 24.2115 28.2999 24.5773 28.2999C24.93 28.2999 25.2762 28.2281 25.6159 28.0844C25.9425 27.9407 26.2365 27.7447 26.4977 27.4965C26.746 27.2352 26.9419 26.9412 27.0856 26.6146C27.2163 26.288 27.2816 25.9418 27.2816 25.576C27.2816 25.2102 27.2163 24.864 27.0856 24.5374C26.9419 24.1977 26.746 23.9037 26.4977 23.6555C26.2365 23.3942 25.9425 23.1983 25.6159 23.0676C25.2762 22.9239 24.93 22.8521 24.5773 22.8521Z" fill="#171717"/>
</g>
<mask id="mask3_1_627" style="mask-type:luminance" maskUnits="userSpaceOnUse" x="29" y="10" width="6" height="6">
<path d="M29.3898 10.1201H34.82V15.5504H29.3898V10.1201Z" fill="white"/>
</mask>
<g mask="url(#mask3_1_627)">
<path d="M32.1137 10.1138C31.7479 10.1138 31.4017 10.1856 31.0751 10.3293C30.7354 10.46 30.4415 10.6559 30.1932 10.9172C29.9319 11.1655 29.736 11.4594 29.6053 11.7991C29.4616 12.1257 29.3898 12.4719 29.3898 12.8377C29.3898 13.1904 29.4616 13.5367 29.6053 13.8763C29.736 14.2029 29.9319 14.4969 30.1932 14.7582C30.4415 15.0064 30.7354 15.2024 31.0751 15.3461C31.4017 15.4767 31.7479 15.542 32.1137 15.542C32.4664 15.542 32.8127 15.4767 33.1523 15.3461C33.4789 15.2024 33.7729 15.0064 34.0342 14.7582C34.2824 14.4969 34.4784 14.2029 34.6221 13.8763C34.7527 13.5367 34.818 13.1904 34.818 12.8377C34.818 12.4719 34.7527 12.1257 34.6221 11.7991C34.4784 11.4594 34.2824 11.1655 34.0342 10.9172C33.7729 10.6559 33.4789 10.46 33.1523 10.3293C32.8127 10.1856 32.4664 10.1138 32.1137 10.1138Z" fill="#171717"/>
</g>
<path d="M11.4548 29.6714L16.3344 22.2051L17.8042 23.1653L12.9246 30.6316L11.4548 29.6714Z" fill="#171717"/>
<path d="M25.3696 26.6152L17.1586 23.1074L17.8641 21.5005L26.0555 24.9887L25.3696 26.6152Z" fill="#171717"/>
<path d="M23.0978 26.4186L32.1122 11.4663L33.6212 12.3873L24.6067 27.32L23.0978 26.4186Z" fill="#171717"/>
</svg>
