<svg width="40" height="40" viewBox="0 0 40 40" fill="none" xmlns="http://www.w3.org/2000/svg">
  <path
    fillRule="evenodd"
    clipRule="evenodd"
    d="M14.5163 7.37332C13.8354 7.57637 12.8821 7.98248 12.4054 8.27577C11.9061 8.61419 11.5883 8.99773 11.6337 9.22334C11.6564 9.4264 11.9968 9.67457 12.36 9.78737C12.7232 9.87762 13.9943 9.85506 15.1519 9.74225C16.2867 9.60689 17.6032 9.35871 18.0345 9.17822C18.4657 8.99773 18.9197 8.65931 19.0559 8.4337C19.1921 8.18553 19.1694 7.91479 18.9878 7.64406C18.7835 7.37332 18.3069 7.21539 17.2401 7.14771C16.2868 7.08003 15.3107 7.17027 14.5163 7.37332ZM9.04613 11.7502C8.50137 12.1112 7.72964 12.6978 7.36647 13.0813C6.91251 13.5476 6.74606 13.901 6.86711 14.1417C6.98061 14.4124 7.63884 14.5027 9.70436 14.6155C11.157 14.7057 14.3574 14.7057 16.7861 14.638C19.2148 14.5704 22.0293 14.3899 23.028 14.2545C24.0267 14.1191 25.5021 13.7807 26.2965 13.51C27.1137 13.2392 27.8627 12.8331 27.9989 12.6301C28.1578 12.3368 28.1351 12.1563 27.9308 11.9533C27.7265 11.7502 26.183 11.6148 22.279 11.502C19.3283 11.4343 15.3561 11.299 13.4722 11.2313L10.0675 11.0959L9.04613 11.7502ZM14.7433 16.5106L5.80031 16.646C5.09668 18.6314 4.9832 19.3985 5.07399 19.8497C5.16478 20.3686 5.36906 20.6619 5.82301 20.8424C6.25427 21.0003 8.54677 21.0454 13.3587 20.9326C17.172 20.8649 22.2336 20.6845 24.5942 20.5716C26.9775 20.4363 30.4049 20.1881 32.198 20.0076C34.0138 19.8271 36.3063 19.4887 37.305 19.218C38.3037 18.9698 39.2797 18.6539 39.4386 18.496C39.6883 18.2704 39.6429 18.135 39.2116 17.7064C38.9166 17.4131 38.1675 17.007 37.532 16.8039C36.6014 16.5106 35.2622 16.4429 30.0417 16.4204C26.5462 16.3978 19.6687 16.4429 14.7433 16.5106ZM7.50266 23.3692C7.09409 23.5497 6.64014 23.8656 6.52664 24.0686C6.41316 24.2717 6.36777 24.6552 6.43587 24.9485C6.50395 25.2193 6.93521 25.8284 7.41187 26.3022C7.86583 26.776 8.61487 27.2723 9.04613 27.3851C9.47739 27.5205 10.7712 27.6784 11.8834 27.7461C13.0183 27.8138 16.4229 27.701 19.4872 27.498C22.5514 27.2949 26.4327 26.979 28.1124 26.7986C29.792 26.5955 31.744 26.3473 32.425 26.212C33.1059 26.0766 34.1954 25.7382 34.8083 25.4674C35.4438 25.1741 36.2836 24.565 36.5787 24.204C36.8738 23.843 36.8738 23.7753 36.556 23.5497C36.3125 23.3692 33.6342 23.2339 28.391 23.1211C24.1011 23.031 17.8818 22.8955 14.5679 22.8278C9.73329 22.715 8.4168 22.7602 7.80397 23.0083C7.50266 23.3692 7.50266 23.3692 7.50266 23.3692ZM14.7206 29.19C13.4495 29.2803 12.2692 29.4833 11.838 29.709C11.4294 29.912 11.0889 30.2053 11.0889 30.3632C11.0662 30.5212 11.2932 30.837 11.5656 31.0852C11.838 31.3334 12.587 31.6718 13.2225 31.8297C13.8581 31.9876 15.6058 32.1907 17.1039 32.2584C18.7835 32.3261 20.3497 32.2809 21.1895 32.123C21.9385 31.9876 22.9145 31.6943 23.3231 31.4687C23.7544 31.2657 24.1402 30.9724 24.1856 30.8145C24.231 30.6565 23.8225 30.3407 23.3004 30.0925C22.7557 29.8443 21.7116 29.551 20.9625 29.4157C20.2135 29.3029 18.9878 29.1449 18.2388 29.1224C17.4897 29.0772 15.9009 29.0998 14.7206 29.19Z"
    fill="#171717"
  />
</svg>
