<svg width="34" height="34" viewBox="0 0 34 34" fill="none" xmlns="http://www.w3.org/2000/svg">
<path d="M24.6253 16.5812C24.6253 11.6759 24.6259 6.77061 24.6248 1.86534C24.6245 0.765801 24.558 0.691234 23.448 0.69003C19.066 0.685276 14.6839 0.685461 10.3019 0.689946C9.23336 0.691042 9.0293 0.894942 9.02837 1.96344C9.02409 6.80331 9.02649 11.6432 9.02649 16.4831" stroke="black" stroke-width="1.37348" stroke-linecap="round" stroke-linejoin="round"/>
<path d="M17.0708 31.7872C17.5985 32.5503 18.341 32.6935 19.2293 32.686C23.4148 32.6505 27.6008 32.6715 31.7866 32.6693C32.9786 32.6687 33.1587 32.4887 33.1593 31.2967C33.1614 26.9146 33.1614 22.5326 33.1593 18.1505C33.1587 16.9586 32.9786 16.7785 31.7866 16.7779C27.3719 16.7758 22.9538 16.6827 18.5446 16.8394C17.3527 16.8818 16.1879 16.7734 15.0106 16.7761C13.3428 16.7799 11.675 16.7771 10.0072 16.7771C7.29296 16.7771 4.57869 16.773 1.86446 16.779C0.754457 16.7815 0.688004 16.8548 0.687693 17.9543C0.686459 22.4672 0.686459 26.98 0.687693 31.4929C0.688004 32.5924 0.75447 32.667 1.86446 32.6682C6.1811 32.673 10.4979 32.6525 14.8143 32.6857C15.6303 32.692 16.2682 32.5273 16.6784 31.7872" stroke="black" stroke-width="1.37348" stroke-linecap="round" stroke-linejoin="round"/>
<path d="M16.9239 17.5322C16.9239 22.274 16.9239 27.0158 16.9239 31.7575" stroke="black" stroke-linecap="round" stroke-linejoin="round"/>
</svg>
