<svg width="14" height="14" viewBox="0 0 14 14" fill="none" xmlns="http://www.w3.org/2000/svg">
<mask id="mask0_53_382" style="mask-type:alpha" maskUnits="userSpaceOnUse" x="0" y="0" width="14" height="14">
<rect width="13.4765" height="13.4765" fill="#D6D6D6"/>
</mask>
<g mask="url(#mask0_53_382)">
<path d="M6.03074 7.64792L4.9442 6.56138C4.85155 6.46872 4.73363 6.4224 4.59044 6.4224C4.44725 6.4224 4.32933 6.46872 4.23668 6.56138C4.14403 6.65403 4.0977 6.77195 4.0977 6.91513C4.0977 7.05832 4.14403 7.17624 4.23668 7.26889L5.67698 8.70919C5.77805 8.81027 5.89597 8.8608 6.03074 8.8608C6.1655 8.8608 6.28342 8.81027 6.3845 8.70919L9.23983 5.85386C9.33248 5.76121 9.3788 5.64329 9.3788 5.5001C9.3788 5.35691 9.33248 5.23899 9.23983 5.14634C9.14718 5.05369 9.02926 5.00737 8.88607 5.00737C8.74288 5.00737 8.62496 5.05369 8.53231 5.14634L6.03074 7.64792ZM6.73825 11.7919C6.03916 11.7919 5.38218 11.6593 4.76732 11.394C4.15245 11.1286 3.6176 10.7686 3.16277 10.3137C2.70794 9.8589 2.34787 9.32406 2.08255 8.70919C1.81723 8.09433 1.68457 7.43735 1.68457 6.73825C1.68457 6.03916 1.81723 5.38218 2.08255 4.76732C2.34787 4.15245 2.70794 3.6176 3.16277 3.16277C3.6176 2.70794 4.15245 2.34787 4.76732 2.08255C5.38218 1.81723 6.03916 1.68457 6.73825 1.68457C7.43735 1.68457 8.09433 1.81723 8.70919 2.08255C9.32406 2.34787 9.8589 2.70794 10.3137 3.16277C10.7686 3.6176 11.1286 4.15245 11.394 4.76732C11.6593 5.38218 11.7919 6.03916 11.7919 6.73825C11.7919 7.43735 11.6593 8.09433 11.394 8.70919C11.1286 9.32406 10.7686 9.8589 10.3137 10.3137C9.8589 10.7686 9.32406 11.1286 8.70919 11.394C8.09433 11.6593 7.43735 11.7919 6.73825 11.7919Z" fill="#6ADD95"/>
</g>
</svg>
