<svg width="33" height="34" viewBox="0 0 33 34" fill="none" xmlns="http://www.w3.org/2000/svg">
<path d="M15.619 0.532509C13.7413 0.801655 11.8847 1.15544 10.1424 1.94654C6.25144 3.71325 3.48 6.55436 1.82899 10.5106C0.99895 12.4996 0.514818 14.5599 0.530394 16.698C0.559142 20.6447 1.90433 24.137 4.49421 27.117C6.95671 29.9504 10.1086 31.7001 13.7697 32.2985C18.5421 33.0784 22.8988 31.8801 26.6536 28.7912C29.613 26.3566 31.4048 23.1885 32.1312 19.4353C32.6994 16.5001 32.3256 13.6401 31.2512 10.8692C29.8245 7.18991 27.3709 4.37976 23.9171 2.48615C21.3717 1.09065 18.6106 0.483639 15.7074 0.532509" stroke="black" stroke-width="1.06004" stroke-linecap="round" stroke-linejoin="round"/>
<path d="M15.9727 6.09806C14.6994 6.28209 13.4647 6.52163 12.2487 7.03705C10.0867 7.9535 8.45979 9.40306 7.32664 11.4044C5.93341 13.8652 5.46812 16.4963 6.2627 19.2582C7.05893 22.0259 8.61832 24.1814 11.1873 25.6472C13.2029 26.7973 15.3269 27.256 17.5596 27.0052C20.4005 26.6861 22.7937 25.3873 24.6297 23.1471C26.4887 20.8789 27.234 18.2405 26.899 15.3766C26.5504 12.3966 25.0739 9.94484 22.674 8.14622C20.7386 6.6957 18.4858 6.07014 16.0611 6.09806" stroke="black" stroke-width="1.06004" stroke-linecap="round" stroke-linejoin="round"/>
<path d="M15.7951 11.6628C14.3877 12.0316 13.1165 12.5847 12.2542 13.8662C10.3736 16.6615 11.6026 20.3191 14.9175 21.3617C17.7428 22.2504 20.4955 20.6631 21.2679 17.8452C22.1745 14.5376 19.3237 11.3877 15.8835 11.6628" stroke="black" stroke-width="1.06004" stroke-linecap="round" stroke-linejoin="round"/>
</svg>
