<svg width="32" height="34" viewBox="0 0 32 34" fill="none" xmlns="http://www.w3.org/2000/svg">
<path d="M18.0517 18.7061C19.2055 17.3278 20.1502 15.8472 20.6689 14.0746C21.3055 11.8995 21.2253 9.77795 20.5018 7.66745C19.5286 4.82821 17.6777 2.68463 15.0038 1.51967C11.1174 -0.173503 7.41449 0.468973 4.20285 3.26686C1.24804 5.841 0.109837 9.28281 0.773629 13.1031C1.50064 17.2872 3.99411 20.1615 8.09132 21.3418C11.3091 22.2687 14.2893 21.6482 16.9691 19.59C17.3266 19.3154 17.6907 19.0496 18.0517 18.7797" stroke="black" stroke-width="1.18087" stroke-linecap="round" stroke-linejoin="round"/>
<path d="M18.1064 18.6968C21.2775 22.0989 24.4446 25.5054 27.627 28.8953C27.8934 29.1791 30.8373 32.6402 31.3381 32.5896" stroke="black" stroke-width="1.18087" stroke-linecap="round" stroke-linejoin="round"/>
</svg>
