<svg width="35" height="34" viewBox="0 0 35 34" fill="none" xmlns="http://www.w3.org/2000/svg">
<path d="M33.6287 32.288C33.4671 31.9484 33.5356 31.5864 33.5355 31.2341C33.5322 21.4616 33.5329 11.6892 33.5327 1.9167C33.5327 0.629355 33.4789 0.576042 32.1915 0.575463C31.2015 0.575024 30.2115 0.573849 29.2215 0.575785C28.0666 0.578042 27.8804 0.764244 27.8804 1.9167C27.88 12.0405 27.8802 22.1642 27.8802 32.288" stroke="white" stroke-width="1.1497" stroke-linecap="round" stroke-linejoin="round"/>
<path d="M24.2395 32.288C24.2395 24.7192 24.2397 17.1503 24.2393 9.58144C24.2393 8.43569 24.238 8.43419 23.0898 8.43217C21.972 8.43021 20.8522 8.47311 19.7373 8.41735C18.9815 8.37955 18.7565 8.66569 18.7668 9.38999C18.7987 11.6251 18.7784 13.8609 18.7784 16.0964C18.7784 21.2062 18.7769 26.316 18.7825 31.4258C18.7829 31.7132 18.8423 32.0006 18.8743 32.288" stroke="white" stroke-width="1.1497" stroke-linecap="round" stroke-linejoin="round"/>
<path d="M15.2335 32.2879C15.2335 27.0184 15.2339 21.749 15.2333 16.4795C15.2331 15.1382 15.2317 15.1382 13.8922 15.1382C12.9022 15.1382 11.9121 15.1342 10.9221 15.1393C9.91335 15.1445 9.77446 15.2791 9.77385 16.2879C9.77078 21.3019 9.7734 26.3159 9.77025 31.3298C9.77003 31.6507 9.83017 31.9807 9.67664 32.2879" stroke="white" stroke-width="1.1497" stroke-linecap="round" stroke-linejoin="round"/>
<path d="M6.22754 32.288C6.22754 29.3498 6.22934 26.4117 6.22668 23.4736C6.22558 22.2693 6.18083 22.2286 4.98203 22.2282C3.86426 22.2277 2.74529 22.2595 1.62921 22.2163C0.961612 22.1904 0.746113 22.4244 0.754089 23.0905C0.784684 25.645 0.771609 28.2002 0.762135 30.755C0.760241 31.2661 0.702583 31.777 0.670654 32.288" stroke="white" stroke-width="1.1497" stroke-linecap="round" stroke-linejoin="round"/>
<path d="M0.57489 32.5749C1.84039 32.4846 3.10591 32.4716 4.37484 32.4629C6.58434 32.4477 8.79652 32.4494 11.0067 32.3883C12.3051 32.3524 13.6544 32.5243 14.9648 32.4479C16.2327 32.3738 17.5038 32.4633 18.7705 32.4051C20.008 32.3483 21.309 32.5298 22.5648 32.4489C23.8333 32.3672 25.103 32.4687 26.371 32.4047C27.5796 32.3437 28.8466 32.4313 30.0865 32.4773C31.2979 32.5222 32.5118 32.487 33.7246 32.487" stroke="white" stroke-width="1.1497" stroke-linecap="round" stroke-linejoin="round"/>
</svg>
