<svg width="27" height="31" viewBox="0 0 27 31" fill="none" xmlns="http://www.w3.org/2000/svg">
<path d="M21.0164 28.2494C21.8316 28.2815 22.4037 28.8679 23.0947 29.1805C23.8177 29.5075 24.4806 29.9647 25.1888 30.3278C25.7706 30.6261 26.1727 30.3561 26.1817 29.6668C26.1978 28.4441 26.1755 27.2208 26.1911 25.998C26.1981 25.4521 25.9599 25.0032 25.5936 24.6737C24.1436 23.3695 22.831 21.9044 21.1809 20.8317C20.8566 20.6208 20.8492 20.3173 20.8494 19.9943C20.85 18.9659 20.8461 17.9374 20.8503 16.909C20.8636 13.6402 20.4584 10.4319 19.1652 7.41034C18.1052 4.93356 16.6244 2.7107 14.5045 0.992269C13.6546 0.303297 13.0611 0.346033 12.2661 1.07154C10.7399 2.46434 9.51571 4.09858 8.50569 5.90058C7.32098 8.01422 6.50924 10.2808 6.21084 12.661C5.91401 15.0287 5.82346 17.422 5.87863 19.8285C5.92816 21.9899 6.09835 24.1657 5.84534 26.3321C5.77765 26.9116 5.85057 27.4964 5.77731 28.0851C5.70255 28.686 6.40904 29.3257 7.09116 29.3276C11.2881 29.3391 15.4852 29.3418 19.6822 29.3262C20.5193 29.3231 20.8833 28.7183 20.8644 27.8321C20.8188 25.6929 20.8459 23.552 20.8568 21.4118C20.8577 21.2448 20.9608 21.0783 21.0164 20.9115" stroke="black" stroke-width="1.00062" stroke-linecap="round" stroke-linejoin="round"/>
<path d="M5.67352 20.8281C5.37514 20.8882 5.08077 20.9262 4.83593 21.1577C3.62121 22.306 2.39725 23.4447 1.16902 24.5786C0.676241 25.0335 0.506275 25.6058 0.504504 26.2481C0.501471 27.3599 0.496055 28.4718 0.506133 29.5835C0.513787 30.4278 0.955893 30.7212 1.66792 30.3283C2.73622 29.7387 3.79297 29.1265 4.83326 28.4891C5.1075 28.321 5.36952 28.2459 5.67352 28.2494" stroke="black" stroke-width="1.00062" stroke-linecap="round" stroke-linejoin="round"/>
</svg>
