<svg width="203" height="31" viewBox="0 0 203 31" fill="none" xmlns="http://www.w3.org/2000/svg">
<path fill-rule="evenodd" clip-rule="evenodd" d="M172.241 0.430772C171.429 0.672852 170.293 1.15701 169.725 1.50668C169.129 1.91015 168.75 2.36741 168.805 2.63639C168.832 2.87847 169.238 3.17434 169.67 3.30883C170.103 3.41642 171.619 3.38952 172.999 3.25504C174.352 3.09365 175.922 2.79777 176.436 2.58259C176.95 2.36741 177.491 1.96394 177.653 1.69497C177.816 1.39909 177.789 1.07632 177.572 0.753545C177.329 0.430772 176.76 0.242488 175.489 0.161795C174.352 0.0811016 173.188 0.188693 172.241 0.430772ZM165.72 5.64894C165.07 6.0793 164.15 6.77864 163.717 7.2359C163.176 7.79179 162.977 8.21319 163.122 8.5001C163.257 8.82287 164.042 8.93046 166.504 9.06495C168.236 9.17254 172.052 9.17254 174.947 9.09185C177.843 9.01115 181.198 8.79597 182.389 8.63459C183.58 8.4732 185.339 8.06973 186.286 7.74696C187.26 7.42419 188.153 6.94003 188.315 6.69795C188.505 6.34828 188.478 6.1331 188.234 5.89102C187.991 5.64894 186.15 5.48755 181.496 5.35306C177.978 5.27237 173.243 5.11098 170.996 5.03029L166.937 4.8689L165.72 5.64894ZM133.923 10.8402C133.815 11.0554 133.815 11.4051 133.896 11.674C134.032 11.9968 134.302 12.1313 134.816 12.0775C135.412 12.0237 135.547 11.8892 135.547 11.3513C135.547 10.8133 135.412 10.6519 134.816 10.5712C134.41 10.5443 134.032 10.6519 133.923 10.8402ZM80.8844 10.9747C80.7761 11.0823 80.695 13.6107 80.722 16.6232L80.7491 22.1104C82.1021 22.1104 82.1021 22.0835 82.1292 19.6089C82.1292 17.7798 82.2374 16.8922 82.5892 16.1929C82.8869 15.6011 83.3469 15.1707 83.8611 15.0363C84.3211 14.9018 84.9706 14.848 85.2953 14.9556C85.62 15.0363 86.1342 15.359 86.4318 15.6549C86.9189 16.1122 86.973 16.5425 86.973 19.1516V22.1104H88.5967C88.5967 18.2371 88.4884 16.677 88.3261 16.1122C88.1908 15.5473 87.7037 14.7942 87.2436 14.4445C86.6754 13.9603 86.1071 13.7721 85.3494 13.7721C84.7541 13.7721 83.9964 13.9065 83.6716 14.0679C83.3469 14.2293 82.8598 14.6328 82.5892 14.9287C82.1562 15.4935 82.1292 15.4397 82.1292 13.1534C82.1292 11.0554 82.0751 10.8133 81.615 10.8133C81.3444 10.8133 81.0197 10.894 80.8844 10.9747ZM110.868 10.9747C110.272 11.0823 110.245 11.0823 110.245 16.5963V22.1104H111.598C111.598 13.3417 111.571 10.8133 111.544 10.8402C111.517 10.8671 111.192 10.9209 110.868 10.9747ZM172.512 11.3244L161.85 11.4857C161.011 13.8527 160.876 14.7673 160.984 15.3052C161.092 15.9239 161.336 16.2735 161.877 16.4887C162.391 16.677 165.124 16.7308 170.861 16.5963C175.407 16.5156 181.442 16.3004 184.256 16.166C187.098 16.0046 191.184 15.7087 193.322 15.4935C195.486 15.2783 198.22 14.8749 199.41 14.5521C200.601 14.2562 201.764 13.8796 201.954 13.6914C202.252 13.4224 202.197 13.261 201.683 12.7499C201.331 12.4003 200.438 11.9161 199.681 11.674C198.571 11.3244 196.975 11.2437 190.751 11.2168C186.583 11.1899 178.384 11.2437 172.512 11.3244ZM52.9036 11.9968C52.8766 12.6424 52.9578 12.6961 54.3649 12.6961H55.8533V22.1104H57.2063V12.6961C60.1288 12.5617 60.3183 12.481 60.3183 12.0237C60.3183 11.5126 60.1288 11.4588 56.611 11.4051L52.9036 11.3244V11.9968ZM0.135303 12.6692V13.7452H3.11198V22.0835H5.81805V13.7452H8.79472V11.5933H0.135303V12.6692ZM28.0078 12.6692C28.0078 13.4493 27.8996 13.7452 27.6019 13.7452C27.3042 13.7452 27.196 14.041 27.196 14.8211C27.196 15.6011 27.3042 15.897 27.6019 15.897C27.9266 15.897 28.0078 16.3811 28.0619 18.264C28.1161 19.9854 28.2784 20.8462 28.6031 21.3572C28.9279 21.8683 29.415 22.1373 30.0915 22.2717C30.6598 22.3524 31.4175 22.3255 31.7963 22.1911C32.3375 22.0028 32.4728 21.7338 32.554 20.8731C32.6622 19.8509 32.6352 19.824 32.0128 19.9854C31.6339 20.093 31.228 20.0392 31.0386 19.8509C30.8221 19.6627 30.6868 18.8826 30.6868 17.726L30.7139 15.897C32.2834 15.897 32.3375 15.8432 32.3375 14.8211C32.3375 13.8259 32.2834 13.7452 31.5257 13.7452C30.7409 13.7452 30.7139 13.6914 30.7139 12.6692V11.5933H28.0078V12.6692ZM11.6361 13.6645C11.3384 13.7452 10.6619 14.1217 10.1478 14.5252C9.6336 14.9018 9.06533 15.6549 8.84884 16.166C8.6053 16.7846 8.52412 17.6184 8.6053 18.4523C8.68648 19.2054 8.98415 20.1199 9.28181 20.4696C9.55242 20.8462 10.0936 21.3841 10.4454 21.6531C10.7972 21.9221 11.6902 22.1911 12.4479 22.2717C13.4221 22.3524 14.0445 22.2448 14.7481 21.8952C15.2622 21.6262 15.9658 21.0076 16.2905 20.4696C16.6423 19.9585 16.9129 19.4475 16.9129 19.3399C16.9129 19.2323 16.3176 19.1247 15.614 19.1247C14.6669 19.1247 14.2069 19.2592 13.8009 19.6627C13.5033 19.9854 13.0433 20.2275 12.7726 20.2275C12.5291 20.2006 12.0691 19.9585 11.7714 19.6627C11.4737 19.3668 11.2302 19.0171 11.2302 18.8557C11.2302 18.6943 12.3397 18.5868 14.0716 18.5868H16.9129C16.9129 16.7846 16.6694 15.9508 16.3717 15.4397C16.074 14.9556 15.5599 14.3907 15.2081 14.1755C14.8834 13.9334 14.0716 13.7183 13.395 13.6376C12.7185 13.5838 11.9338 13.5838 11.6361 13.6645ZM11.6902 16.2466C12.042 15.897 12.4479 15.628 12.6373 15.628C12.8268 15.628 13.2868 15.8432 13.6656 16.1391C14.0445 16.4349 14.2069 16.7308 14.0716 16.8384C13.9092 16.946 13.1786 16.9729 11.0949 16.8384L11.6902 16.2466ZM20.5391 13.9872C19.8896 14.2831 19.2131 14.8749 18.8072 15.5204C18.3201 16.3004 18.1307 16.9729 18.1307 17.9412C18.1307 18.775 18.3201 19.6358 18.6719 20.2275C18.9966 20.7924 19.7002 21.411 20.4038 21.7607C21.0803 22.1104 22.0003 22.3793 22.4333 22.3793C22.8933 22.3524 23.7593 22.1104 24.4087 21.8414C25.0853 21.5186 25.7077 20.9807 25.9512 20.4965C26.1947 20.0392 26.3571 19.5013 26.3571 19.2861C26.3571 18.9902 26.0594 18.8826 25.2747 18.8826C24.517 18.8826 23.9487 19.0709 23.3804 19.5551C22.758 20.0661 22.4333 20.1737 21.9733 19.9854C21.6215 19.8509 21.1885 19.3399 20.9991 18.8557C20.7014 18.0757 20.7014 17.7798 21.0532 16.9191C21.4321 16.0853 21.6215 15.9239 22.298 15.9239C22.8392 15.9239 23.2 16.1032 23.3804 16.4618C23.5969 16.8922 23.9216 16.9998 25.0041 16.9998C26.1947 16.9998 26.3571 16.9191 26.3571 16.4618C26.3571 16.166 26.0324 15.5473 25.6265 15.0631C25.2206 14.6059 24.4899 14.041 24.0028 13.8527C23.5157 13.6645 22.7851 13.5031 22.3792 13.5031C21.9733 13.5031 21.1344 13.7183 20.5391 13.9872ZM37.3437 14.041C36.7213 14.4983 36.6131 14.5252 36.6131 14.2024C36.6402 13.8527 36.3425 13.7721 35.2871 13.7721H33.9341V22.1104H36.6402C36.6402 17.1074 36.6672 16.9729 37.3167 16.5963C37.6955 16.3811 38.2367 16.2466 38.5344 16.3273C39.0486 16.4349 39.0756 16.3273 39.0215 15.0363C38.9674 14.0141 38.8321 13.6107 38.5344 13.5569C38.2909 13.5031 37.7497 13.7452 37.3437 14.041ZM42.377 13.8796C41.8899 14.0679 41.2405 14.579 40.9428 15.0094C40.6451 15.4397 40.2934 16.2735 40.131 16.8653C39.9416 17.5915 39.9416 18.3178 40.1581 19.1516C40.3204 19.8778 40.7805 20.7117 41.3217 21.2496C41.9711 21.8952 42.5123 22.1642 43.4053 22.2717C44.3795 22.4062 44.7854 22.3255 45.3808 21.8683C45.9761 21.411 46.1114 21.3841 46.1114 21.7069C46.1114 22.0028 46.4361 22.1104 47.4644 22.1104H48.8175V13.7721C46.4361 13.7721 46.1114 13.8527 46.1114 14.1755C46.1114 14.4983 45.9761 14.4714 45.3808 14.0141C44.9749 13.7183 44.3254 13.4762 43.9465 13.5031C43.5948 13.5031 42.8641 13.6914 42.377 13.8796ZM43.2971 16.3273C43.5406 16.1122 44.0548 15.9239 44.4336 15.897C44.8396 15.897 45.3808 16.1122 45.6514 16.3811C46.0032 16.7308 46.1114 17.1881 46.0573 18.0488C46.0032 18.9364 45.8137 19.3399 45.2996 19.7165C44.8396 20.0661 44.4336 20.1468 43.9736 20.0123C43.6218 19.9047 43.1618 19.4744 42.9724 19.0709C42.7559 18.6674 42.6747 17.9681 42.7288 17.5377C42.81 17.0805 43.0536 16.5425 43.2971 16.3273ZM63.1596 14.3638C62.6455 14.7135 61.996 15.4128 61.7525 15.9239C61.4819 16.4349 61.2654 17.3495 61.2924 17.9412C61.2924 18.533 61.536 19.5282 61.8066 20.1468C62.2396 21.0613 62.6184 21.411 63.6467 21.8683C64.648 22.3255 65.1892 22.4062 66.1363 22.2448C67.0564 22.0835 67.6247 21.7876 68.3824 21.0076C68.9236 20.4158 69.3565 19.7972 69.3024 19.6089C69.2483 19.4206 68.9777 19.2861 68.653 19.2861C68.3553 19.2861 67.787 19.6627 67.4082 20.1468C66.7858 20.9 66.5152 21.0344 65.4598 21.0344C64.5939 21.0344 64.0797 20.8731 63.5926 20.4158C63.2138 20.093 62.862 19.4744 62.7808 19.0709L62.6184 18.3447H69.3836C69.3836 16.7846 69.1671 15.9508 68.8965 15.5204C68.6259 15.0631 67.9494 14.4983 67.4082 14.2293C66.867 13.9872 65.8928 13.7721 65.2433 13.7721C64.4856 13.7721 63.755 13.9872 63.1596 14.3638ZM63.782 15.5473C64.4856 14.9018 64.7562 14.7942 65.7033 14.9287C66.434 15.0363 67.0293 15.3321 67.4352 15.7625C67.76 16.1391 68.0306 16.7039 68.0306 16.9998C68.0306 17.4839 67.8682 17.5377 65.3245 17.5377C62.6725 17.5377 62.6184 17.5377 62.7808 16.9191C62.862 16.5963 63.322 15.9777 63.782 15.5473ZM73.0368 14.1755C72.5768 14.3638 71.9273 14.9556 71.6296 15.4397C71.3049 15.9239 70.9531 16.7577 70.8719 17.2688C70.7637 17.7798 70.8178 18.6943 70.9802 19.2861C71.1425 19.9585 71.6026 20.6848 72.225 21.2227C72.8474 21.8145 73.578 22.1642 74.3357 22.2717C75.1746 22.4062 75.797 22.2986 76.7712 21.8683C77.6101 21.4917 78.2054 21.0076 78.4489 20.4965C78.6925 20.0392 78.8548 19.5551 78.8548 19.4206C78.8548 19.2592 78.6113 19.1516 78.3136 19.1516C78.0159 19.1516 77.3936 19.5551 76.9065 20.0661C76.2029 20.8193 75.797 21.0076 75.0122 21.0076C74.2275 21.0344 73.7945 20.8462 73.1721 20.2275C72.5226 19.5551 72.3603 19.1785 72.3603 18.2102C72.3603 17.5377 72.5497 16.6232 72.7662 16.1929C73.0097 15.7356 73.4427 15.3052 73.7945 15.1976C74.1192 15.1169 74.7687 15.0363 75.2016 15.0631C75.6617 15.09 76.2841 15.2783 76.6359 15.5204C76.9606 15.7356 77.3124 16.166 77.3665 16.4618C77.4567 16.8205 77.7273 16.9998 78.1783 16.9998C78.6383 16.9998 78.8548 16.8384 78.8819 16.5156C78.8819 16.2735 78.6383 15.7087 78.3407 15.3052C78.016 14.9018 77.4206 14.3907 76.9606 14.1755C76.5276 13.9603 75.6346 13.7721 75.0122 13.7721C74.3628 13.7721 73.4968 13.9603 73.0368 14.1755ZM90.518 17.9143L90.4909 22.1104H92.1146C92.1146 17.8067 92.2499 16.4618 92.4664 16.0584C92.6558 15.6818 93.0617 15.2514 93.4135 15.1169C93.7382 14.9556 94.3335 14.848 94.6853 14.848C95.0642 14.848 95.7136 15.1438 96.1196 15.4935C96.8231 16.1122 96.8502 16.2466 96.9314 19.1247L96.9855 22.1104H98.3385C98.3385 17.3764 98.2032 16.166 97.9326 15.5204C97.7161 14.9825 97.1749 14.3907 96.7149 14.1755C96.2819 13.9603 95.416 13.7721 94.8206 13.7721C94.0629 13.7721 93.4947 13.9603 92.9264 14.4445L92.1146 15.1169C92.0063 14.0679 91.7898 13.8796 91.2757 13.8259L90.5451 13.7183L90.518 17.9143ZM102.235 14.31C101.775 14.579 101.072 15.3321 100.666 15.9777C100.043 16.946 99.9351 17.3495 100.07 18.4792C100.125 19.2323 100.422 20.1199 100.693 20.4696C100.963 20.8193 101.532 21.3572 101.938 21.68C102.506 22.1104 103.101 22.2448 104.238 22.2448C105.401 22.2448 105.997 22.0835 106.673 21.6531C107.133 21.3034 107.729 20.6848 107.945 20.2275C108.162 19.7972 108.351 18.8019 108.351 18.0219C108.351 17.0715 108.171 16.3094 107.81 15.7356C107.512 15.2514 106.863 14.6059 106.403 14.31C105.861 13.9872 105.023 13.7721 104.292 13.7721C103.561 13.7721 102.749 13.9872 102.235 14.31ZM103.074 15.2245C103.534 15.0363 104.265 14.9287 104.698 15.0094C105.158 15.09 105.834 15.5204 106.267 15.9508C106.836 16.5425 106.998 16.9998 106.998 17.8874C106.998 18.5599 106.781 19.3937 106.457 19.9047C106.051 20.5503 105.645 20.8193 104.914 20.9269C104.346 21.0344 103.588 21.0076 103.237 20.8731C102.885 20.7386 102.344 20.3351 102.073 19.9585C101.721 19.5282 101.532 18.8557 101.532 18.0757C101.532 17.4033 101.694 16.5694 101.911 16.2198C102.1 15.8701 102.641 15.4128 103.074 15.2245ZM115.684 14.2562C115.17 14.4983 114.494 15.0631 114.196 15.4935C113.844 15.9508 113.601 16.7846 113.52 17.6453C113.465 18.6674 113.574 19.313 114.007 20.1737C114.413 20.9807 114.9 21.4648 115.739 21.8414C116.361 22.1373 117.254 22.3793 117.687 22.3793C118.147 22.3793 119.04 22.1104 119.689 21.7876C120.447 21.411 121.07 20.8193 121.394 20.2275C121.665 19.7165 121.881 18.7481 121.881 18.0757C121.881 17.4033 121.665 16.4349 121.394 15.9239C121.151 15.4128 120.501 14.7135 119.987 14.3907C119.338 13.9603 118.661 13.7721 117.822 13.7721C117.146 13.7721 116.199 13.9872 115.684 14.2562ZM116.55 15.2783C117.01 15.0363 117.497 14.8749 117.633 14.8749C117.741 14.848 118.255 15.0363 118.769 15.2514C119.401 15.5204 119.852 15.9687 120.122 16.5963C120.339 17.1074 120.528 17.7798 120.528 18.0757C120.528 18.3716 120.339 19.0171 120.122 19.5013C119.906 19.9854 119.419 20.5234 119.04 20.7117C118.661 20.9 118.012 21.0344 117.552 21.0344C117.037 21.0344 116.442 20.7655 115.928 20.3082C115.414 19.8509 115.035 19.2054 114.954 18.6137C114.846 18.0219 114.954 17.2688 115.224 16.6501C115.495 16.0046 115.955 15.5204 116.55 15.2783ZM125.21 14.31C124.669 14.6328 124.073 15.359 123.721 16.1122C123.288 17.0805 123.18 17.6184 123.316 18.533C123.424 19.1785 123.667 20.0392 123.884 20.4427C124.073 20.8462 124.587 21.411 125.02 21.7069C125.535 22.0566 126.292 22.2179 127.212 22.2448C128.457 22.2448 128.728 22.1373 129.594 21.3034L130.541 20.362C130.541 22.0297 130.432 22.9173 130.27 23.4015C130.108 23.9394 129.702 24.4236 129.188 24.6656C128.755 24.8808 127.97 25.0691 127.51 25.0691C126.86 25.0422 126.373 24.8001 125.751 24.1277C125.264 23.6166 124.614 23.1863 124.317 23.1863C123.965 23.1863 123.776 23.3746 123.776 23.6704C123.803 23.9125 124.263 24.585 124.804 25.1229C125.535 25.8491 126.076 26.145 126.752 26.1988C127.266 26.2257 128.024 26.2257 128.457 26.1988C128.863 26.1719 129.567 25.9567 130 25.7416C130.487 25.4995 131.028 24.8808 131.353 24.2084C131.813 23.2132 131.894 22.46 131.894 18.4254V13.7721C130.649 13.7721 130.541 13.9065 130.541 14.579C130.541 15.0363 130.432 15.3859 130.27 15.3859C130.135 15.3859 130 15.2783 130 15.1169C130 14.9825 129.594 14.6059 129.134 14.31C128.619 14.0141 127.753 13.7721 127.158 13.7721C126.563 13.7721 125.697 14.0141 125.21 14.31ZM126.833 15.0363C127.158 14.9825 127.726 14.9825 128.105 15.0631C128.484 15.1438 129.107 15.5204 129.512 15.897C129.918 16.2735 130.324 16.9998 130.405 17.4839C130.487 17.9681 130.378 18.7481 130.189 19.2323C130 19.7165 129.539 20.3082 129.161 20.5772C128.809 20.8193 128.051 21.0344 127.51 21.0344C126.725 21.0344 126.292 20.8462 125.67 20.2275C124.993 19.5551 124.858 19.2054 124.858 18.0757C124.858 17.0267 125.02 16.5694 125.535 15.9508C125.913 15.5204 126.482 15.1169 126.833 15.0363ZM134.059 17.9412V22.1104H135.412V13.7721H134.059V17.9412ZM139.281 14.31C138.794 14.6059 138.145 15.2514 137.847 15.7356C137.495 16.2735 137.306 17.0805 137.306 17.8874C137.306 18.5868 137.468 19.5551 137.658 20.0392C137.847 20.5234 138.442 21.1958 138.957 21.5724C139.66 22.0835 140.201 22.2448 141.365 22.2448C142.339 22.2448 143.124 22.0835 143.611 21.7876C144.017 21.5186 144.585 20.9269 144.856 20.4427C145.154 19.9585 145.343 19.5013 145.289 19.4206C145.235 19.3399 144.964 19.2861 144.666 19.2861C144.396 19.2861 143.828 19.6896 143.449 20.1737C142.799 20.9269 142.556 21.0344 141.365 21.0344C140.201 21.0344 139.931 20.9269 139.335 20.2275C138.957 19.7972 138.659 19.1785 138.659 18.8826C138.659 18.3716 138.848 18.3447 142.042 18.3447H145.424C145.424 17.1074 145.262 16.408 145.045 16.0046C144.829 15.6011 144.342 14.9556 143.936 14.579C143.368 14.0679 142.88 13.8796 141.69 13.8259C140.499 13.7721 139.958 13.8796 139.281 14.31ZM140.093 15.2245C140.418 15.0363 140.959 14.8749 141.311 14.848C141.636 14.848 142.285 15.0363 142.718 15.2514C143.232 15.4935 143.638 15.9777 143.8 16.5425C143.963 17.0267 144.071 17.4301 144.071 17.4839C144.071 17.5108 142.853 17.5377 141.365 17.5377C139.363 17.5377 138.659 17.457 138.659 17.215C138.686 17.0267 138.875 16.5694 139.092 16.2198C139.335 15.8701 139.796 15.4128 140.093 15.2245ZM148.265 14.0948C147.968 14.2562 147.562 14.579 147.372 14.8211C147.183 15.0631 147.048 15.7087 147.048 16.2735C147.048 16.9998 147.21 17.3764 147.67 17.6722C147.995 17.8874 148.942 18.264 149.754 18.4792C150.566 18.6943 151.405 19.044 151.594 19.2323C151.837 19.4206 151.919 19.824 151.81 20.3082C151.702 20.7655 151.432 21.0882 151.053 21.1958C150.701 21.3034 150.079 21.2496 149.619 21.1151C149.186 20.9807 148.698 20.6041 148.536 20.2813C148.347 19.8778 148.022 19.6896 147.535 19.6896C146.885 19.6896 146.804 19.7703 146.994 20.2813C147.102 20.6041 147.508 21.142 147.941 21.4917C148.347 21.8414 149.077 22.1911 149.564 22.2717C150.024 22.3793 150.863 22.2986 151.405 22.1104C151.946 21.949 152.595 21.5455 152.839 21.2227C153.082 20.9 153.272 20.3082 153.272 19.9047C153.272 19.5013 153.001 18.8826 152.676 18.533C152.298 18.1833 151.432 17.7798 150.566 17.5915C149.754 17.4302 148.834 17.0536 148.536 16.7577C148.022 16.2198 148.022 16.1929 148.482 15.5204C148.834 15.0363 149.186 14.848 149.889 14.848C150.62 14.848 150.972 15.0363 151.459 15.6549C151.81 16.166 152.298 16.4618 152.676 16.4618C153.245 16.4618 153.245 16.408 152.947 15.6011C152.758 15.1438 152.243 14.5252 151.783 14.2562C151.35 13.9872 150.484 13.7721 149.889 13.7721C149.294 13.799 148.563 13.9334 148.265 14.0948ZM163.88 19.5013C163.392 19.7165 162.851 20.093 162.716 20.3351C162.581 20.5772 162.526 21.0344 162.608 21.3841C162.689 21.7069 163.203 22.4331 163.771 22.998C164.312 23.5628 165.205 24.1546 165.72 24.2891C166.234 24.4505 167.776 24.6387 169.102 24.7194C170.455 24.8001 174.514 24.6656 178.168 24.4236C181.821 24.1815 186.448 23.8049 188.451 23.5897C190.453 23.3477 192.78 23.0518 193.592 22.8904C194.404 22.729 195.703 22.3255 196.434 22.0028C197.191 21.6531 197.976 21.1689 198.192 20.9269C198.544 20.4965 198.544 20.4158 198.165 20.1468C197.868 19.9316 194.675 19.7703 188.424 19.6358C183.309 19.5282 175.894 19.3668 171.944 19.2861C166.18 19.1516 164.61 19.2054 163.88 19.5013ZM172.485 26.4409C170.969 26.5485 169.562 26.7906 169.048 27.0595C168.561 27.3016 168.155 27.6513 168.155 27.8396C168.128 28.0279 168.399 28.4044 168.723 28.7003C169.048 28.9962 169.941 29.3996 170.699 29.5879C171.457 29.7762 173.54 30.0183 175.326 30.099C177.329 30.1797 179.196 30.1259 180.197 29.9376C181.09 29.7762 182.254 29.4265 182.741 29.1576C183.255 28.9155 183.715 28.5658 183.769 28.3775C183.823 28.1892 183.336 27.8127 182.714 27.5168C182.064 27.2209 180.82 26.8713 179.927 26.7099C179.033 26.5754 177.572 26.3871 176.679 26.3602C175.786 26.3064 173.892 26.3333 172.485 26.4409Z" fill="white" stroke="black" stroke-width="0.270607"/>
</svg>
